<svg xmlns="http://www.w3.org/2000/svg" version="1.1" xmlns:xlink="http://www.w3.org/1999/xlink" xmlns:svgjs="http://svgjs.dev/svgjs" width="1500" height="621" viewBox="0 0 1500 621"><g transform="matrix(1,0,0,1,-0.9090909090909918,0.8048607857693924)"><svg viewBox="0 0 396 164" data-background-color="#ffffff" preserveAspectRatio="xMidYMid meet" height="621" width="1500" xmlns="http://www.w3.org/2000/svg" xmlns:xlink="http://www.w3.org/1999/xlink"><g id="tight-bounds" transform="matrix(1,0,0,1,0.2400000000000091,-0.21255582748177915)"><svg viewBox="0 0 395.52 164.42511165496356" height="164.42511165496356" width="395.52"><g><svg viewBox="0 0 718.2844720534703 298.6043803535053" height="164.42511165496356" width="395.52"><g><rect width="12.56223711352882" height="234.19688138948322" x="428.4054374699707" y="32.203749482011034" fill="#262d9e" opacity="1" stroke-width="0" stroke="transparent" fill-opacity="1" class="rect-qz-0" data-fill-palette-color="primary" rx="1%" id="qz-0" data-palette-color="#262d9e"></rect></g><g transform="matrix(1,0,0,1,0,32.78632878895003)"><svg viewBox="0 0 395.52 233.03172277560523" height="233.03172277560523" width="395.52"><g id="textblocktransform"><svg viewBox="0 0 395.52 233.03172277560523" height="233.03172277560523" width="395.52" id="textblock"><g><svg viewBox="0 0 395.52 139.30021463414633" height="139.30021463414633" width="395.52"><g transform="matrix(1,0,0,1,0,0)"><svg width="395.52" viewBox="1.75 -35.4 103.69 36.1" height="139.30021463414633" data-palette-color="#262d9e"><g class="wordmark-text-0" data-fill-palette-color="primary" id="text-0"><path d="M34.65-35.4L34.65-35.4 34.65-34.4Q33.05-34.2 32.25-33.58 31.45-32.95 31.18-31.6 30.9-30.25 30.9-27.8L30.9-27.8 30.9 0.1Q30.3 0.05 29.68 0.05 29.05 0.05 28.35 0.1L28.35 0.1 6.65-27.4 6.65-8.2Q6.65-5.45 6.95-3.98 7.25-2.5 8.28-1.88 9.3-1.25 11.5-1L11.5-1 11.5 0Q10.55-0.1 9-0.13 7.45-0.15 6.1-0.15L6.1-0.15Q4.95-0.15 3.75-0.13 2.55-0.1 1.75 0L1.75 0 1.75-1Q3.35-1.25 4.15-1.85 4.95-2.45 5.23-3.83 5.5-5.2 5.5-7.6L5.5-7.6 5.5-30.1Q5.5-31.95 5.23-32.83 4.95-33.7 4.13-34.02 3.3-34.35 1.75-34.4L1.75-34.4 1.75-35.4Q2.55-35.35 3.75-35.3 4.95-35.25 6.1-35.25L6.1-35.25Q7.3-35.25 8.4-35.3 9.5-35.35 10.4-35.4L10.4-35.4 29.75-11.55 29.75-27.2Q29.75-29.95 29.45-31.43 29.15-32.9 28.13-33.55 27.1-34.2 24.9-34.4L24.9-34.4 24.9-35.4Q25.85-35.35 27.4-35.3 28.95-35.25 30.3-35.25L30.3-35.25Q31.5-35.25 32.68-35.3 33.85-35.35 34.65-35.4ZM50.2-26.55L50.2-26.55Q53.85-26.55 56.6-25.2 59.35-23.85 60.9-20.85 62.45-17.85 62.45-12.9L62.45-12.9Q62.45-7.95 60.9-4.98 59.35-2 56.6-0.65 53.85 0.7 50.2 0.7L50.2 0.7Q46.65 0.7 43.87-0.65 41.1-2 39.52-4.98 37.95-7.95 37.95-12.9L37.95-12.9Q37.95-17.85 39.52-20.85 41.1-23.85 43.87-25.2 46.65-26.55 50.2-26.55ZM50.2-25.55L50.2-25.55Q48.2-25.55 46.85-22.58 45.5-19.6 45.5-12.9L45.5-12.9Q45.5-6.2 46.85-3.25 48.2-0.3 50.2-0.3L50.2-0.3Q52.25-0.3 53.57-3.25 54.9-6.2 54.9-12.9L54.9-12.9Q54.9-19.6 53.57-22.58 52.25-25.55 50.2-25.55ZM75.69-34.05L75.69-34.05 75.69-25.85 81.59-25.85 81.59-24.85 75.69-24.85 75.69-4.65Q75.69-3.15 76.25-2.53 76.8-1.9 77.89-1.9L77.89-1.9Q78.8-1.9 79.69-2.58 80.59-3.25 81.3-4.9L81.3-4.9 82.14-4.45Q81.34-2.2 79.72-0.75 78.09 0.7 75.3 0.7L75.3 0.7Q73.64 0.7 72.39 0.28 71.14-0.15 70.3-1L70.3-1Q69.19-2.1 68.84-3.73 68.5-5.35 68.5-7.95L68.5-7.95 68.5-24.85 64.3-24.85 64.3-25.85 68.5-25.85 68.5-32.45Q70.59-32.45 72.37-32.83 74.14-33.2 75.69-34.05ZM96.04-26.55L96.04-26.55Q100.44-26.55 102.94-23.95 105.44-21.35 105.44-15.45L105.44-15.45 88.99-15.45 88.89-16.4 99.14-16.4Q99.19-18.85 98.84-20.93 98.49-23 97.74-24.25 96.99-25.5 95.74-25.5L95.74-25.5Q93.99-25.5 92.77-23.3 91.54-21.1 91.29-16L91.29-16 91.44-15.7Q91.39-15.1 91.37-14.45 91.34-13.8 91.34-13.1L91.34-13.1Q91.34-9.65 92.32-7.5 93.29-5.35 94.79-4.38 96.29-3.4 97.84-3.4L97.84-3.4Q99.34-3.4 101.12-4.15 102.89-4.9 104.44-7.4L104.44-7.4 105.34-7.1Q104.74-5.2 103.44-3.4 102.14-1.6 100.14-0.45 98.14 0.7 95.34 0.7L95.34 0.7Q91.94 0.7 89.34-0.75 86.74-2.2 85.27-5.15 83.79-8.1 83.79-12.65L83.79-12.65Q83.79-17.3 85.37-20.4 86.94-23.5 89.72-25.03 92.49-26.55 96.04-26.55Z" fill="#262d9e" data-fill-palette-color="primary"></path></g></svg></g></svg></g><g transform="matrix(1,0,0,1,163.310208,172.18565210411705)"><svg viewBox="0 0 232.209792 60.84607067148818" height="60.84607067148818" width="232.209792"><g transform="matrix(1,0,0,1,0,0)"><svg width="232.209792" viewBox="2.2 -35 179.74 47.1" height="60.84607067148818" data-palette-color="#333ccc"><path d="M8.85 0L2.2 0 7.05-35 12.3-35 20.85-19.05 29.35-35 34.6-35 39.45 0 32.8 0 29.45-26.3 31.2-25.95 20.85-7.35 10.45-25.9 12.2-26.25 8.85 0ZM55.95 0.5L55.95 0.5Q51.42 0.5 48.41-1.31 45.4-3.13 43.9-6.11 42.4-9.1 42.4-12.65L42.4-12.65Q42.4-16.07 43.81-18.98 45.22-21.88 47.95-23.64 50.67-25.4 54.6-25.4L54.6-25.4Q58.2-25.4 60.6-23.93 63-22.45 64.2-19.99 65.4-17.53 65.4-14.55L65.4-14.55Q65.4-13.73 65.3-12.89 65.2-12.05 65-11.15L65-11.15 48.85-11.15Q49.2-8.83 50.31-7.39 51.42-5.95 53.04-5.28 54.65-4.6 56.5-4.6L56.5-4.6Q58.67-4.6 60.55-5.16 62.42-5.73 64-6.65L64-6.65 64.3-1.4Q62.87-0.65 60.75-0.08 58.62 0.5 55.95 0.5ZM49-15.35L49-15.35 59.1-15.35Q59.1-16.48 58.67-17.61 58.25-18.75 57.26-19.53 56.27-20.3 54.6-20.3L54.6-20.3Q52.2-20.3 50.82-18.9 49.45-17.5 49-15.35ZM75.84 0L69.65 0 69.65-25 74.95-25 75.34-21.35 74.45-22.45Q75.87-23.58 77.86-24.49 79.84-25.4 82.5-25.4L82.5-25.4Q84.5-25.4 86.03-24.81 87.57-24.23 88.67-23.14 89.77-22.05 90.45-20.55L90.45-20.55 88.95-20.9Q90.15-23.05 92.46-24.23 94.77-25.4 97.7-25.4L97.7-25.4Q101.15-25.4 103.32-23.98 105.5-22.55 106.52-19.96 107.55-17.38 107.55-13.9L107.55-13.9 107.55 0 101.34 0 101.34-13.45Q101.34-16.95 100.26-18.63 99.17-20.3 96.65-20.3L96.65-20.3Q95.4-20.3 94.46-19.86 93.52-19.43 92.91-18.59 92.3-17.75 92-16.56 91.7-15.38 91.7-13.9L91.7-13.9 91.7 0 85.5 0 85.5-13.45Q85.5-15.78 85.01-17.3 84.52-18.82 83.46-19.56 82.4-20.3 80.7-20.3L80.7-20.3Q78.52-20.3 77.13-19.29 75.75-18.28 74.7-16.55L74.7-16.55 75.84-19.9 75.84 0ZM124.44 0.5L124.44 0.5Q120.37 0.5 117.49-1.28 114.62-3.05 113.11-6 111.59-8.95 111.59-12.45L111.59-12.45Q111.59-15.98 113.11-18.95 114.62-21.93 117.49-23.71 120.37-25.5 124.44-25.5L124.44-25.5Q128.52-25.5 131.39-23.71 134.27-21.93 135.78-18.95 137.29-15.98 137.29-12.45L137.29-12.45Q137.29-8.95 135.78-6 134.27-3.05 131.39-1.28 128.52 0.5 124.44 0.5ZM124.44-4.6L124.44-4.6Q127.57-4.6 129.25-6.79 130.94-8.97 130.94-12.45L130.94-12.45Q130.94-15.98 129.25-18.19 127.57-20.4 124.44-20.4L124.44-20.4Q121.34-20.4 119.64-18.19 117.94-15.98 117.94-12.45L117.94-12.45Q117.94-8.97 119.64-6.79 121.34-4.6 124.44-4.6ZM147.79 0L141.59 0 141.59-25 147.39-25 147.54-22.35Q148.49-23.4 150.22-24.45 151.94-25.5 153.99-25.5L153.99-25.5Q154.59-25.5 155.09-25.4L155.09-25.4 154.64-19.3Q154.09-19.45 153.55-19.5 153.01-19.55 152.49-19.55L152.49-19.55Q150.91-19.55 149.62-18.82 148.31-18.1 147.79-17.05L147.79-17.05 147.79 0ZM166.29 12.1L160.09 12.1 165.64-1.65 155.24-25 162.14-25 168.54-8.9 175.04-25 181.94-25 166.29 12.1Z" opacity="1" transform="matrix(1,0,0,1,0,0)" fill="#333ccc" class="slogan-text-1" data-fill-palette-color="secondary" id="text-1"></path></svg></g></svg></g></svg></g></svg></g><g transform="matrix(1,0,0,1,473.8531120534702,0)"><svg viewBox="0 0 244.43135999999998 298.6043803535053" height="298.6043803535053" width="244.43135999999998"><g><svg xmlns="http://www.w3.org/2000/svg" xmlns:xlink="http://www.w3.org/1999/xlink" version="1.1" x="0" y="0" viewBox="13.165999999999984 5.000165652216451 73.672 89.99983434778353" enable-background="new 0 0 100 100" xml:space="preserve" height="298.6043803535053" width="244.43135999999998" class="icon-icon-0" data-fill-palette-color="accent" id="icon-0"><g fill="#333ccc" data-fill-palette-color="accent"><g fill="#333ccc" data-fill-palette-color="accent"><path d="M24.755 35.325h47.038c1.617 0 2.94-1.33 2.94-2.947 0-1.617-1.323-2.947-2.94-2.947H24.755c-1.617 0-2.94 1.33-2.94 2.947C21.815 33.995 23.138 35.325 24.755 35.325z" fill="#333ccc" data-fill-palette-color="accent"></path><path d="M75.463 41.219H24.755c-1.617 0-2.94 1.33-2.94 2.947s1.323 2.947 2.94 2.947h50.708c1.617 0 2.94-1.33 2.94-2.947S77.08 41.219 75.463 41.219z" fill="#333ccc" data-fill-palette-color="accent"></path><path d="M72.586 53.006H24.755c-1.617 0-2.94 1.33-2.94 2.947 0 1.617 1.323 2.947 2.94 2.947h47.831c1.617 0 2.94-1.33 2.94-2.947C75.526 54.336 74.203 53.006 72.586 53.006z" fill="#333ccc" data-fill-palette-color="accent"></path><path d="M44.259 64.794H24.777c-1.617 0-2.94 1.33-2.94 2.947 0 1.617 1.323 2.947 2.94 2.947h19.482c1.617 0 2.94-1.33 2.94-2.947C47.199 66.124 45.876 64.794 44.259 64.794z" fill="#333ccc" data-fill-palette-color="accent"></path><path d="M77.432 9.328c0.5-2.215 0.187-3.874-0.828-4.256-1.281-0.483-3.368 1.521-4.736 4.468h-4.121c0.49-2.21 0.233-3.965-0.777-4.346-1.281-0.483-3.311 1.399-4.679 4.346H58.17c0.49-2.21 0.233-3.965-0.777-4.346-1.281-0.483-3.311 1.399-4.679 4.346h-4.121c0.49-2.21 0.233-3.965-0.777-4.346-1.281-0.483-3.311 1.399-4.679 4.346h-4.121c0.49-2.21 0.233-3.965-0.777-4.346-1.281-0.483-3.311 1.399-4.679 4.346h-4.121c0.49-2.21 0.233-3.965-0.777-4.346-1.281-0.483-3.311 1.399-4.679 4.346h-0.394c-5.673 0-10.423 4.029-10.423 9.702v64.832c0 5.673 4.75 10.926 10.423 10.926h53.044c5.673 0 10.205-5.253 10.205-10.926V19.242C86.836 13.802 82.759 9.66 77.432 9.328zM83.889 84.074c0 4.062-3.196 7.979-7.259 7.979H23.587c-4.062 0-7.476-3.917-7.476-7.979V19.242c0-3.849 3.156-6.683 6.956-6.97-0.482 2.186-0.279 4.06 0.727 4.439 1.281 0.483 3.255-1.277 4.623-4.224h4.121c-0.49 2.21-0.232 3.965 0.777 4.346 1.281 0.483 3.311-1.399 4.679-4.346h4.121c-0.49 2.21-0.232 3.965 0.777 4.346 1.281 0.483 3.311-1.399 4.679-4.346h4.121c-0.49 2.21-0.232 3.965 0.777 4.346 1.281 0.483 3.311-1.399 4.679-4.346h4.121c-0.49 2.21-0.232 3.965 0.777 4.346 1.281 0.483 3.311-1.399 4.679-4.346h4.121c-0.49 2.21-0.232 3.965 0.777 4.346 1.281 0.483 3.311-1.399 4.679-4.346h0.328c4.062 0 7.259 2.693 7.259 6.755V84.074z" fill="#333ccc" data-fill-palette-color="accent"></path></g></g></svg></g></svg></g></svg></g><defs></defs></svg><rect width="395.52" height="164.42511165496356" fill="none" stroke="none" visibility="hidden"></rect></g></svg></g></svg>